<?xml version="1.0" encoding="UTF-8" standalone="no"?>
<!-- Created with Inkscape (http://www.inkscape.org/) -->

<svg
   width="210mm"
   height="297mm"
   viewBox="0 0 210 297"
   version="1.1"
   id="svg325"
   xml:space="preserve"
   inkscape:version="1.2.1 (9c6d41e, 2022-07-14)"
   sodipodi:docname="logo_fruit.svg"
   xmlns:inkscape="http://www.inkscape.org/namespaces/inkscape"
   xmlns:sodipodi="http://sodipodi.sourceforge.net/DTD/sodipodi-0.dtd"
   xmlns:xlink="http://www.w3.org/1999/xlink"
   xmlns="http://www.w3.org/2000/svg"
   xmlns:svg="http://www.w3.org/2000/svg"><sodipodi:namedview
     id="namedview327"
     pagecolor="#ffffff"
     bordercolor="#000000"
     borderopacity="0.25"
     inkscape:showpageshadow="2"
     inkscape:pageopacity="0.0"
     inkscape:pagecheckerboard="0"
     inkscape:deskcolor="#d1d1d1"
     inkscape:document-units="mm"
     showgrid="false"
     inkscape:zoom="0.41601749"
     inkscape:cx="105.76478"
     inkscape:cy="528.82392"
     inkscape:window-width="1470"
     inkscape:window-height="920"
     inkscape:window-x="0"
     inkscape:window-y="36"
     inkscape:window-maximized="0"
     inkscape:current-layer="layer1" /><defs
     id="defs322"><linearGradient
       inkscape:collect="always"
       id="linearGradient14312"><stop
         style="stop-color:#fe9d03;stop-opacity:1;"
         offset="0"
         id="stop14308" /><stop
         style="stop-color:#ffaa00;stop-opacity:1;"
         offset="0.14220542"
         id="stop14937" /><stop
         style="stop-color:#ffaa00;stop-opacity:1;"
         offset="0.23637445"
         id="stop15077" /><stop
         style="stop-color:#f9650b;stop-opacity:1;"
         offset="1"
         id="stop14310" /></linearGradient><linearGradient
       inkscape:collect="always"
       id="linearGradient10716"><stop
         style="stop-color:#f58634;stop-opacity:1;"
         offset="0"
         id="stop10712" /><stop
         style="stop-color:#f26935;stop-opacity:1;"
         offset="0.92236024"
         id="stop10714" /></linearGradient><linearGradient
       inkscape:collect="always"
       id="linearGradient9750"><stop
         style="stop-color:#fd9a02;stop-opacity:1;"
         offset="0"
         id="stop9746" /><stop
         style="stop-color:#fa7209;stop-opacity:1;"
         offset="0.52484471"
         id="stop9748" /></linearGradient><linearGradient
       inkscape:collect="always"
       id="linearGradient6706"><stop
         style="stop-color:#ffad00;stop-opacity:1;"
         offset="0"
         id="stop6702" /><stop
         style="stop-color:#f25128;stop-opacity:1;"
         offset="1"
         id="stop6704" /></linearGradient><linearGradient
       inkscape:collect="always"
       id="linearGradient4657"><stop
         style="stop-color:#ff2e0a;stop-opacity:1;"
         offset="0"
         id="stop4653" /><stop
         style="stop-color:#f6601c;stop-opacity:1;"
         offset="0.27893928"
         id="stop5475" /><stop
         style="stop-color:#f78b26;stop-opacity:1;"
         offset="1"
         id="stop4655" /></linearGradient><linearGradient
       inkscape:collect="always"
       id="linearGradient7340"><stop
         style="stop-color:#fb7908;stop-opacity:0.89312971;"
         offset="0"
         id="stop7336" /><stop
         style="stop-color:#ffad00;stop-opacity:1;"
         offset="0.45366749"
         id="stop7338" /><stop
         style="stop-color:#ffad00;stop-opacity:1;"
         offset="1"
         id="stop8089" /></linearGradient><linearGradient
       inkscape:collect="always"
       xlink:href="#linearGradient7340"
       id="linearGradient7342"
       x1="133.53203"
       y1="143.45036"
       x2="159.55414"
       y2="111.36781"
       gradientUnits="userSpaceOnUse" /><linearGradient
       inkscape:collect="always"
       xlink:href="#linearGradient4657"
       id="linearGradient4659"
       x1="134.80792"
       y1="144.03276"
       x2="191.61917"
       y2="202.36343"
       gradientUnits="userSpaceOnUse" /><linearGradient
       inkscape:collect="always"
       xlink:href="#linearGradient6706"
       id="linearGradient6708"
       x1="43.163162"
       y1="135.47357"
       x2="94.328331"
       y2="163.85997"
       gradientUnits="userSpaceOnUse" /><linearGradient
       inkscape:collect="always"
       xlink:href="#linearGradient9750"
       id="linearGradient9752"
       x1="34.967133"
       y1="166.64102"
       x2="169.05565"
       y2="196.9948"
       gradientUnits="userSpaceOnUse" /><linearGradient
       inkscape:collect="always"
       xlink:href="#linearGradient10716"
       id="linearGradient10718"
       x1="36.970055"
       y1="191.58459"
       x2="89.112892"
       y2="211.22389"
       gradientUnits="userSpaceOnUse" /><linearGradient
       inkscape:collect="always"
       xlink:href="#linearGradient14312"
       id="linearGradient14314"
       x1="71.748756"
       y1="236.01207"
       x2="151.78934"
       y2="200.43787"
       gradientUnits="userSpaceOnUse" /></defs><g
     inkscape:label="Calque 1"
     inkscape:groupmode="layer"
     id="layer1"><g
       id="g4378"
       inkscape:label="logo"
       style="stroke:none"><path
         id="path4371"
         style="fill:url(#linearGradient14314);stroke:none;stroke-width:0.799999;fill-opacity:1"
         d="M 38.813652 202.7375 C 38.844136 202.80271 38.867867 202.85577 38.898918 202.92198 C 43.335508 212.38256 48.021002 219.16883 54.828178 225.99396 C 57.088484 228.26023 59.950035 230.91849 61.186963 231.90109 C 73.723197 241.8597 88.714509 247.75249 104.61687 248.9724 C 118.43649 250.03255 132.18006 247.28826 145.29862 240.84938 C 148.51015 239.27309 149.10922 238.86736 150.88071 237.0677 C 154.89906 232.98543 157.37878 227.67864 157.66324 222.55437 C 157.77745 220.49695 157.67784 219.38896 157.13149 216.65344 C 155.65738 209.2725 153.48754 205.53145 148.90151 202.46413 C 144.35908 199.42597 139.00866 198.15713 130.77238 198.16413 C 121.24364 198.17213 111.50574 200.05098 98.22863 204.44385 C 96.171319 205.12453 94.533951 205.6416 93.1354 206.02463 C 93.089812 206.08892 93.041134 206.15492 92.985539 206.2241 C 92.923287 206.30157 92.85443 206.38172 92.779867 206.46492 C 92.705303 206.54811 92.624648 206.6343 92.538021 206.72278 C 92.451394 206.81127 92.358961 206.90229 92.260518 206.99563 C 92.162076 207.08898 92.057885 207.18467 91.947876 207.28244 C 91.837867 207.38021 91.721939 207.47988 91.60061 207.58164 C 91.479282 207.68341 91.352671 207.7869 91.220272 207.89222 C 91.087873 207.99754 90.949565 208.10468 90.806344 208.21313 C 90.663122 208.32158 90.514688 208.43169 90.360893 208.54283 C 90.207098 208.65397 90.04804 208.76636 89.883919 208.87976 C 89.719798 208.99316 89.550655 209.10766 89.376457 209.22289 C 89.202258 209.33811 89.023049 209.45405 88.839022 209.57067 C 88.654994 209.68729 88.466257 209.80449 88.272648 209.92207 C 88.07904 210.03965 87.880794 210.15743 87.677852 210.27554 C 87.474911 210.39364 87.267177 210.51184 87.055151 210.63004 C 86.843126 210.74823 86.62644 210.86668 86.405579 210.98454 C 86.184717 211.10239 85.959617 211.21989 85.730168 211.33697 C 85.500718 211.45405 85.267225 211.57043 85.029435 211.6863 C 84.791646 211.80218 84.549779 211.91727 84.303898 212.0315 C 84.058017 212.14573 83.807797 212.25938 83.554073 212.37153 C 83.300349 212.48369 83.042829 212.59468 82.78151 212.70433 C 82.520192 212.81398 82.255392 212.92215 81.986727 213.02886 C 81.718062 213.13556 81.445486 213.24075 81.169722 213.34408 C 80.893959 213.44742 80.614661 213.54893 80.332048 213.64846 C 80.049434 213.74798 79.763951 213.84515 79.474736 213.94043 C 79.18552 214.03571 78.892839 214.12887 78.59727 214.21948 C 78.301701 214.31009 78.002874 214.39857 77.7012 214.48407 C 77.399526 214.56957 77.095092 214.65215 76.787561 214.73211 C 76.48003 214.81207 76.169492 214.88912 75.856352 214.96311 C 75.543212 215.03709 75.227623 215.10792 74.909123 215.1755 C 74.590622 215.24307 74.269486 215.30751 73.945874 215.36825 C 73.622262 215.42898 73.296116 215.48636 72.967639 215.53982 C 72.639163 215.59327 72.308027 215.64289 71.974935 215.68864 C 71.641843 215.73439 71.306771 215.77609 70.969312 215.8137 C 70.631852 215.85131 70.292348 215.88492 69.950769 215.91395 C 69.609191 215.94299 69.265274 215.96731 68.919824 215.98733 C 68.574375 216.00736 68.227099 216.02274 67.878027 216.03333 C 67.528955 216.04391 67.178341 216.04967 66.825895 216.05038 C 66.473449 216.05109 66.119 216.04706 65.763428 216.03746 C 65.407855 216.02786 65.051142 216.01284 64.692692 215.9925 C 64.334242 215.97216 63.974251 215.9465 63.613171 215.91499 C 63.252092 215.88347 62.889877 215.84597 62.526416 215.80285 C 62.162955 215.75972 61.79802 215.71074 61.432426 215.65557 C 61.066832 215.6004 60.70023 215.53924 60.332751 215.4716 C 59.965273 215.40396 59.597024 215.32994 59.227909 215.24939 C 58.858794 215.16884 58.48892 215.0818 58.118416 214.98791 C 57.933165 214.94096 57.74793 214.89203 57.562378 214.84167 C 57.376826 214.7913 57.191128 214.73944 57.005306 214.6856 C 56.819484 214.63177 56.633261 214.57605 56.447201 214.51869 C 56.261141 214.46133 56.075362 214.40238 55.889095 214.34144 C 55.702828 214.2805 55.5164 214.21791 55.329956 214.15334 C 55.143512 214.08877 54.956889 214.02212 54.7703 213.95387 C 54.583711 213.88561 54.396831 213.81554 54.210128 213.74354 C 54.023424 213.67154 53.836742 213.59765 53.649955 213.52185 C 53.463169 213.44605 53.276622 213.36844 53.089783 213.28879 C 52.902944 213.20914 52.715954 213.12739 52.529093 213.04384 C 52.342233 212.96029 52.155254 212.87504 51.968404 212.78753 C 51.781554 212.70002 51.595041 212.61033 51.408232 212.51881 C 51.221422 212.42729 51.03428 212.3338 50.847542 212.23821 C 50.660805 212.14262 50.474521 212.04491 50.287887 211.9452 C 50.101252 211.84549 49.914215 211.74368 49.727714 211.63979 C 49.541213 211.53591 49.354911 211.4301 49.168575 211.32198 C 48.982239 211.21387 48.796092 211.10365 48.609953 210.99126 C 48.423813 210.87886 48.23776 210.76434 48.051847 210.64761 C 47.865935 210.53087 47.679913 210.41165 47.494259 210.29052 C 47.308604 210.1694 47.123069 210.04609 46.937703 209.92052 C 46.752338 209.79495 46.567227 209.66715 46.382182 209.53708 C 46.197137 209.40701 46.012388 209.27483 45.827694 209.14021 C 45.643 209.00558 45.458551 208.86861 45.274239 208.72938 C 45.089927 208.59014 44.905716 208.4485 44.721818 208.3046 C 44.53792 208.1607 44.354401 208.01448 44.170947 207.86587 C 43.987493 207.71725 43.804089 207.56605 43.62111 207.41266 C 43.438131 207.25928 43.255295 207.10372 43.072823 206.94551 C 42.890351 206.7873 42.708538 206.62646 42.526603 206.46337 C 42.344668 206.30028 42.162783 206.13478 41.981417 205.96676 C 41.80005 205.79873 41.619065 205.62817 41.438298 205.45516 C 41.25753 205.28215 41.076865 205.10663 40.896729 204.92858 C 40.716592 204.75052 40.536702 204.57016 40.357227 204.38701 C 40.177752 204.20386 39.998574 204.01824 39.819792 203.82994 C 39.641009 203.64163 39.462999 203.45035 39.284941 203.25684 C 39.127644 203.0859 38.97036 202.91254 38.813652 202.7375 z " /><path
         id="path10502"
         style="fill:url(#linearGradient10718);stroke:none;stroke-width:0.799999;fill-opacity:1"
         d="M 38.813652 202.7375 C 38.97036 202.91254 39.127644 203.0859 39.284941 203.25684 C 39.462999 203.45035 39.641009 203.64163 39.819792 203.82994 C 39.998574 204.01824 40.177752 204.20386 40.357227 204.38701 C 40.536702 204.57016 40.716592 204.75052 40.896729 204.92858 C 41.076865 205.10663 41.25753 205.28215 41.438298 205.45516 C 41.619065 205.62817 41.80005 205.79873 41.981417 205.96676 C 42.162783 206.13478 42.344668 206.30028 42.526603 206.46337 C 42.708538 206.62646 42.890351 206.7873 43.072823 206.94551 C 43.255295 207.10372 43.438131 207.25928 43.62111 207.41266 C 43.804089 207.56605 43.987493 207.71725 44.170947 207.86587 C 44.354401 208.01448 44.53792 208.1607 44.721818 208.3046 C 44.905716 208.4485 45.089927 208.59014 45.274239 208.72938 C 45.458551 208.86861 45.643 209.00558 45.827694 209.14021 C 46.012388 209.27483 46.197137 209.40701 46.382182 209.53708 C 46.567227 209.66715 46.752338 209.79495 46.937703 209.92052 C 47.123069 210.04609 47.308604 210.1694 47.494259 210.29052 C 47.679913 210.41165 47.865935 210.53087 48.051847 210.64761 C 48.23776 210.76434 48.423813 210.87886 48.609953 210.99126 C 48.796092 211.10365 48.982239 211.21387 49.168575 211.32198 C 49.354911 211.4301 49.541213 211.53591 49.727714 211.63979 C 49.914215 211.74368 50.101252 211.84549 50.287887 211.9452 C 50.474521 212.04491 50.660805 212.14262 50.847542 212.23821 C 51.03428 212.3338 51.221422 212.42729 51.408232 212.51881 C 51.595041 212.61033 51.781554 212.70002 51.968404 212.78753 C 52.155254 212.87504 52.342233 212.96029 52.529093 213.04384 C 52.715954 213.12739 52.902944 213.20914 53.089783 213.28879 C 53.276622 213.36844 53.463169 213.44605 53.649955 213.52185 C 53.836742 213.59765 54.023424 213.67154 54.210128 213.74354 C 54.396831 213.81554 54.583711 213.88561 54.7703 213.95387 C 54.956889 214.02212 55.143512 214.08877 55.329956 214.15334 C 55.5164 214.21791 55.702828 214.2805 55.889095 214.34144 C 56.075362 214.40238 56.261141 214.46133 56.447201 214.51869 C 56.633261 214.57605 56.819484 214.63177 57.005306 214.6856 C 57.191128 214.73944 57.376826 214.7913 57.562378 214.84167 C 57.74793 214.89203 57.933165 214.94096 58.118416 214.98791 C 58.48892 215.0818 58.858794 215.16884 59.227909 215.24939 C 59.597024 215.32994 59.965273 215.40396 60.332751 215.4716 C 60.70023 215.53924 61.066832 215.6004 61.432426 215.65557 C 61.79802 215.71074 62.162955 215.75972 62.526416 215.80285 C 62.889877 215.84597 63.252092 215.88347 63.613171 215.91499 C 63.974251 215.9465 64.334242 215.97216 64.692692 215.9925 C 65.051142 216.01284 65.407855 216.02786 65.763428 216.03746 C 66.119 216.04706 66.473449 216.05109 66.825895 216.05038 C 67.178341 216.04967 67.528955 216.04391 67.878027 216.03333 C 68.227099 216.02274 68.574375 216.00736 68.919824 215.98733 C 69.265274 215.96731 69.609191 215.94299 69.950769 215.91395 C 70.292348 215.88492 70.631852 215.85131 70.969312 215.8137 C 71.306771 215.77609 71.641843 215.73439 71.974935 215.68864 C 72.308027 215.64289 72.639163 215.59327 72.967639 215.53982 C 73.296116 215.48636 73.622262 215.42898 73.945874 215.36825 C 74.269486 215.30751 74.590622 215.24307 74.909123 215.1755 C 75.227623 215.10792 75.543212 215.03709 75.856352 214.96311 C 76.169492 214.88912 76.48003 214.81207 76.787561 214.73211 C 77.095092 214.65215 77.399526 214.56957 77.7012 214.48407 C 78.002874 214.39857 78.301701 214.31009 78.59727 214.21948 C 78.892839 214.12887 79.18552 214.03571 79.474736 213.94043 C 79.763951 213.84515 80.049434 213.74798 80.332048 213.64846 C 80.614661 213.54893 80.893959 213.44742 81.169722 213.34408 C 81.445486 213.24075 81.718062 213.13556 81.986727 213.02886 C 82.255392 212.92215 82.520192 212.81398 82.78151 212.70433 C 83.042829 212.59468 83.300349 212.48369 83.554073 212.37153 C 83.807797 212.25938 84.058017 212.14573 84.303898 212.0315 C 84.549779 211.91727 84.791646 211.80218 85.029435 211.6863 C 85.267225 211.57043 85.500718 211.45405 85.730168 211.33697 C 85.959617 211.21989 86.184717 211.10239 86.405579 210.98454 C 86.62644 210.86668 86.843126 210.74823 87.055151 210.63004 C 87.267177 210.51184 87.474911 210.39364 87.677852 210.27554 C 87.880794 210.15743 88.07904 210.03965 88.272648 209.92207 C 88.466257 209.80449 88.654994 209.68729 88.839022 209.57067 C 89.023049 209.45405 89.202258 209.33811 89.376457 209.22289 C 89.550655 209.10766 89.719798 208.99316 89.883919 208.87976 C 90.04804 208.76636 90.207098 208.65397 90.360893 208.54283 C 90.514688 208.43169 90.663122 208.32158 90.806344 208.21313 C 90.949565 208.10468 91.087873 207.99754 91.220272 207.89222 C 91.352671 207.7869 91.479282 207.68341 91.60061 207.58164 C 91.721939 207.47988 91.837867 207.38021 91.947876 207.28244 C 92.057885 207.18467 92.162076 207.08898 92.260518 206.99563 C 92.358961 206.90229 92.451394 206.81127 92.538021 206.72278 C 92.624648 206.6343 92.705303 206.54811 92.779867 206.46492 C 92.85443 206.38172 92.923287 206.30157 92.985539 206.2241 C 93.041134 206.15492 93.089812 206.08892 93.1354 206.02463 C 89.166886 207.11153 87.15927 207.09781 83.231095 206.51453 C 76.568179 205.52518 68.667048 202.34869 60.525505 197.38692 C 54.334468 193.61387 46.70903 190.32353 42.45529 189.58946 C 41.601835 189.44217 40.833832 189.36582 40.149487 189.36105 C 37.183994 189.34035 35.786963 190.66881 35.786963 193.44556 C 35.786963 195.62374 36.469968 197.7236 38.813652 202.7375 z " /><path
         id="path6340"
         style="fill:url(#linearGradient4659);stroke:none;stroke-width:0.799999;fill-opacity:1"
         d="M 124.42445 143.1277 C 128.84242 143.77845 132.33738 144.45323 133.58719 144.9188 C 133.73912 144.9754 133.8644 145.02955 133.94738 145.07952 C 136.54241 146.64215 141.57717 150.18672 144.39842 152.43721 C 156.4843 162.07801 165.19924 173.39336 169.52144 185.05537 C 170.05239 186.48796 170.4501 187.77077 170.4051 187.90584 C 170.3601 188.04091 169.7937 187.42395 169.14626 186.53487 C 169.13535 186.51989 169.12313 186.50489 169.11216 186.48991 C 169.1839 186.6765 169.26203 186.86543 169.33127 187.05111 C 169.54353 187.6204 169.74446 188.18552 169.93381 188.7461 C 170.12316 189.30668 170.30132 189.86265 170.46866 190.41422 C 170.63601 190.96578 170.79216 191.51321 170.9384 192.05546 C 171.08464 192.59771 171.2206 193.13513 171.34665 193.66777 C 171.47269 194.20039 171.58923 194.7279 171.69598 195.25061 C 171.80273 195.77333 171.9001 196.291 171.98847 196.80349 C 172.07684 197.31599 172.1558 197.82339 172.2267 198.32536 C 172.29759 198.82733 172.35996 199.32405 172.41428 199.81519 C 172.4686 200.30634 172.51515 200.79194 172.55381 201.27195 C 172.59247 201.75196 172.62345 202.22654 172.64734 202.69512 C 172.67124 203.1637 172.68794 203.62631 172.69799 204.08315 C 172.70803 204.53999 172.71122 204.99072 172.70832 205.43552 C 172.70542 205.88032 172.69639 206.31926 172.68145 206.75172 C 172.66651 207.18418 172.64603 207.61038 172.61995 208.0302 C 172.59388 208.45001 172.56221 208.86356 172.5259 209.27043 C 172.4896 209.6773 172.44854 210.07726 172.40291 210.47087 C 172.35729 210.86449 172.3071 211.25146 172.25305 211.63153 C 172.19901 212.01159 172.14097 212.38516 172.07942 212.75135 C 172.01787 213.11756 171.95276 213.47676 171.8846 213.82881 C 171.81644 214.18086 171.74555 214.52527 171.67169 214.86285 C 171.52398 215.53802 171.36547 216.18418 171.2004 216.79969 C 171.03534 217.41519 170.86346 218.00018 170.68829 218.55358 C 170.51312 219.107 170.33456 219.62892 170.15654 220.11783 C 169.97851 220.60674 169.801 221.0627 169.62737 221.48467 C 169.45374 221.90665 169.28397 222.29477 169.12198 222.64739 C 168.95999 223.00001 168.80567 223.3174 168.66257 223.59824 C 168.57695 223.76628 168.50475 223.89429 168.42796 224.03594 C 168.38826 224.15725 168.36493 224.23732 168.35613 224.27933 C 168.35393 224.28983 168.34321 224.3221 168.34321 224.32688 C 168.34321 224.47092 169.1104 223.48488 170.12347 222.09704 C 169.88452 222.40162 169.63354 222.72448 169.42635 222.98174 C 169.09652 223.39127 168.80914 223.73973 168.57214 224.02354 C 168.80914 223.73973 169.09652 223.39127 169.42635 222.98174 C 169.63354 222.72448 169.88452 222.40162 170.12347 222.09704 C 171.33255 220.44065 172.89776 218.2022 174.00747 216.49635 C 181.10464 205.58633 185.31624 195.43809 187.12863 184.52982 C 187.33124 183.31038 187.50574 182.08173 187.64901 180.84116 C 187.64478 180.86575 187.64191 180.89153 187.63764 180.91609 C 187.53943 181.48146 187.43105 182.03702 187.31466 182.58369 C 187.30647 182.62218 187.29918 182.66157 187.29089 182.69996 C 187.10376 182.07853 186.91084 181.39792 186.69558 180.66701 C 186.58795 180.30155 186.47483 179.92316 186.354 179.53374 C 186.23317 179.14433 186.10456 178.74388 185.96643 178.33278 C 185.8283 177.92169 185.68052 177.50032 185.52098 177.06981 C 185.36143 176.6393 185.18979 176.1997 185.00473 175.75206 C 184.81966 175.30442 184.62099 174.84876 184.40632 174.38625 C 184.29897 174.15502 184.18749 173.92161 184.07197 173.68707 C 183.95644 173.45253 183.83703 173.21665 183.71282 172.97911 C 183.5886 172.74156 183.4597 172.50262 183.32628 172.26235 C 183.19285 172.02209 183.05497 171.78055 182.91183 171.53785 C 182.76869 171.29515 182.62027 171.05148 182.4669 170.80663 C 182.31352 170.56178 182.15508 170.31592 181.99096 170.06921 C 181.82684 169.82249 181.65733 169.57491 181.48195 169.32662 C 181.30656 169.07832 181.12546 168.82897 180.93831 168.57937 C 180.75115 168.32978 180.55794 168.07964 180.3585 167.82903 C 180.15906 167.57842 179.95321 167.32744 179.74097 167.07611 C 179.52872 166.82477 179.30972 166.57341 179.08416 166.32163 C 178.8586 166.06985 178.62643 165.81755 178.38704 165.5656 C 178.14766 165.31366 177.90128 165.06189 177.64755 164.8101 C 177.39383 164.55828 177.13272 164.30651 176.86414 164.0551 C 176.59556 163.80369 176.3192 163.55238 176.03525 163.30166 C 175.7513 163.05094 175.45969 162.80106 175.15985 162.55132 C 174.86002 162.30158 174.55211 162.05204 174.23588 161.80356 C 173.91965 161.55508 173.59543 161.30739 173.26229 161.06045 C 172.47234 160.47492 171.70852 159.91949 170.96166 159.38975 C 170.58823 159.12489 170.2189 158.86657 169.85268 158.61409 C 169.48646 158.36161 169.12317 158.1147 168.76179 157.87357 C 168.40042 157.63243 168.04118 157.39695 167.68227 157.16612 C 167.32336 156.93529 166.96466 156.70917 166.60585 156.48761 C 166.24704 156.26604 165.88793 156.04879 165.52685 155.83545 C 165.16577 155.62211 164.80272 155.4127 164.43699 155.20655 C 164.07126 155.0004 163.70283 154.7978 163.33008 154.5978 C 162.95734 154.39779 162.5805 154.20049 162.19837 154.00559 C 161.96022 153.88413 161.71582 153.76518 161.47335 153.6454 C 161.45729 153.63747 161.44137 153.62956 161.42529 153.62163 C 160.99327 153.41763 160.56098 153.21708 160.12873 153.02012 C 159.69648 152.82316 159.26428 152.62979 158.83268 152.43979 C 158.40109 152.24979 157.97025 152.06317 157.54025 151.88014 C 157.11026 151.6971 156.68112 151.51764 156.25351 151.34167 C 155.90416 151.1979 155.55643 151.05793 155.21016 150.9205 C 154.8639 150.78308 154.51909 150.6482 154.17457 150.51381 C 153.43838 150.23594 152.70168 149.96553 151.96178 149.70507 C 151.11531 149.4071 150.26489 149.12007 149.40742 148.84156 C 148.54995 148.56305 147.68517 148.29332 146.81016 148.03076 C 145.93515 147.76819 145.04999 147.51248 144.15089 147.26233 C 143.25179 147.01218 142.33868 146.7672 141.40894 146.52594 C 140.4792 146.28468 139.53262 146.04714 138.5657 145.81125 C 137.59878 145.57539 136.61166 145.34146 135.60103 145.10742 C 135.12833 144.99796 134.63173 144.88789 134.1484 144.77824 C 133.59836 144.65346 133.05998 144.52905 132.49527 144.40359 C 132.05498 144.30577 131.60954 144.214 131.15892 144.12712 C 130.7083 144.04024 130.25258 143.95808 129.79104 143.88011 C 129.32951 143.80214 128.86211 143.72848 128.38906 143.65738 C 127.91601 143.58628 127.43709 143.51798 126.95194 143.45171 C 126.13101 143.33958 125.28231 143.23385 124.42445 143.1277 z M 154.17457 150.51381 C 154.51909 150.6482 154.8639 150.78308 155.21016 150.9205 C 155.55643 151.05793 155.90416 151.1979 156.25351 151.34167 C 156.68112 151.51764 157.11026 151.6971 157.54025 151.88014 C 157.97025 152.06317 158.40109 152.24979 158.83268 152.43979 C 159.26428 152.62979 159.69648 152.82316 160.12873 153.02012 C 160.56098 153.21708 160.99327 153.41763 161.42529 153.62163 C 161.29457 153.55719 161.1673 153.49136 161.03513 153.42733 C 160.64124 153.23649 160.24065 153.04721 159.83262 152.8594 C 159.42459 152.67159 159.00915 152.48506 158.58464 152.29923 C 158.1601 152.1134 157.72631 151.92859 157.28291 151.74371 C 156.8395 151.55883 156.3864 151.3742 155.92175 151.18922 C 155.45709 151.00424 154.98117 150.81878 154.4929 150.63267 C 154.38688 150.59225 154.28061 150.55384 154.17457 150.51381 z M 133.92723 144.76946 C 133.98923 144.76984 134.05811 144.7723 134.13393 144.77669 C 134.03284 144.77084 133.94368 144.76869 133.86728 144.76997 C 133.79089 144.77126 133.72726 144.77598 133.6766 144.78444 C 133.62593 144.79291 133.58857 144.80498 133.56446 144.82062 C 133.5524 144.82844 133.5439 144.83731 133.53862 144.84697 C 133.53333 144.85664 133.53127 144.86709 133.53293 144.8785 C 133.53127 144.86709 133.53333 144.85664 133.53862 144.84697 C 133.5439 144.83731 133.5524 144.82844 133.56446 144.82062 C 133.58857 144.80498 133.62593 144.79291 133.6766 144.78444 C 133.72726 144.77598 133.79089 144.77126 133.86728 144.76997 C 133.88638 144.76965 133.90656 144.76933 133.92723 144.76946 z M 187.31466 182.59764 C 187.30552 182.80675 187.29279 183.01685 187.27642 183.22758 C 187.26005 183.4383 187.24003 183.64964 187.21648 183.86216 C 187.19905 184.01939 187.17651 184.17528 187.15498 184.33138 C 187.17651 184.17525 187.19904 184.01943 187.21648 183.86216 C 187.24003 183.64964 187.26005 183.4383 187.27642 183.22758 C 187.29279 183.01685 187.30552 182.80675 187.31466 182.59764 z "
         inkscape:label="path6340" /><path
         id="path2893"
         style="fill:url(#linearGradient6708);stroke:none;stroke-width:0.799999;fill-opacity:1"
         d="M 51.947734 123.51494 C 46.957373 123.58767 42.326927 128.91921 38.876697 138.79411 C 38.741511 139.18102 38.553913 139.69317 38.385254 140.16199 C 38.465392 140.29092 38.545256 140.41994 38.627616 140.54749 C 38.741978 140.72461 38.858374 140.90063 38.976949 141.07511 C 39.095524 141.24959 39.216496 141.42259 39.339201 141.59446 C 39.461905 141.76632 39.586588 141.93679 39.713338 142.10605 C 39.840089 142.27532 39.968648 142.44321 40.099361 142.6099 C 40.230074 142.77659 40.362677 142.94239 40.49727 143.10651 C 40.631862 143.27063 40.768676 143.43327 40.907064 143.59485 C 41.045452 143.75643 41.18561 143.91691 41.32771 144.07596 C 41.46981 144.23501 41.613997 144.39277 41.759725 144.54932 C 41.905453 144.70586 42.052802 144.86086 42.202075 145.01492 C 42.351349 145.16898 42.502543 145.3217 42.655278 145.47329 C 42.808011 145.62488 42.962186 145.77529 43.118298 145.92443 C 43.274411 146.07356 43.432248 146.22163 43.591654 146.36833 C 43.751061 146.51503 43.912211 146.66071 44.074829 146.80499 C 44.237447 146.94928 44.40156 147.09202 44.567306 147.23391 C 44.73305 147.37579 44.900295 147.5166 45.069084 147.6561 C 45.237871 147.79561 45.408415 147.93392 45.580164 148.07107 C 45.751911 148.20821 45.924886 148.34451 46.099512 148.47931 C 46.274137 148.61411 46.450226 148.74732 46.627645 148.8798 C 46.805063 149.01228 46.983918 149.14392 47.164046 149.27409 C 47.524303 149.53444 47.890027 149.79026 48.26062 150.04149 C 48.631213 150.29271 49.006388 150.53924 49.38665 150.78149 C 49.76691 151.02375 50.151839 151.26172 50.541101 151.49515 C 50.930363 151.72858 51.324313 151.95717 51.721908 152.18193 C 52.119501 152.40668 52.520712 152.62717 52.925968 152.84338 C 53.331226 153.0596 53.740514 153.27169 54.152767 153.47952 C 54.56502 153.68735 54.980623 153.89126 55.399202 154.09085 C 55.817783 154.29044 56.238969 154.48589 56.663208 154.67738 C 57.087447 154.86887 57.514521 155.05608 57.94375 155.23962 C 58.372979 155.42316 58.804694 155.60286 59.238245 155.77861 C 59.671795 155.95434 60.10742 156.12625 60.544625 156.29434 C 60.981829 156.46242 61.420633 156.62676 61.860824 156.78733 C 62.301013 156.9479 62.742267 157.10489 63.184774 157.2581 C 63.62728 157.41131 64.07077 157.56067 64.514925 157.70665 C 64.959081 157.85264 65.404074 157.9951 65.849211 158.13402 C 66.294346 158.27293 66.739599 158.40821 67.185046 158.54019 C 67.630495 158.67218 68.076307 158.80101 68.521399 158.92622 C 68.96649 159.05142 69.4111 159.173 69.855168 159.29157 C 70.299234 159.41014 70.742428 159.52572 71.184802 159.6378 C 71.627177 159.74988 72.06874 159.85866 72.508752 159.9644 C 72.948766 160.07013 73.387451 160.17285 73.824434 160.27239 C 74.261418 160.37192 74.696496 160.46829 75.129781 160.56178 C 75.563067 160.65526 75.994323 160.7455 76.423242 160.83308 C 76.852162 160.92066 77.278865 161.00551 77.702751 161.08733 C 78.126635 161.16913 78.548058 161.24832 78.966239 161.32452 C 79.384422 161.40072 79.799313 161.47393 80.211125 161.54466 C 80.622935 161.6154 81.031601 161.68337 81.436373 161.74878 C 81.841144 161.8142 82.242337 161.87717 82.6394 161.9374 C 83.036465 161.99764 83.429451 162.05531 83.81814 162.11052 C 84.206827 162.16572 84.59088 162.21833 84.970524 162.26865 C 85.350168 162.31897 85.725073 162.36724 86.095003 162.41283 C 86.464934 162.45841 86.82996 162.50154 87.18951 162.54253 C 87.908609 162.62451 88.606256 162.69716 89.279822 162.76164 C 89.953386 162.82613 90.602756 162.88246 91.225439 162.93062 C 91.848124 162.97878 92.444404 163.01906 93.01086 163.05206 C 93.577317 163.08506 94.114148 163.11057 94.619031 163.12958 C 95.123913 163.14858 95.596487 163.16112 96.034448 163.1673 C 96.472411 163.17348 96.875914 163.17329 97.24161 163.16782 C 97.607304 163.16234 97.93538 163.15123 98.223462 163.13526 C 98.367503 163.12728 98.501353 163.11826 98.624988 163.10787 C 98.748623 163.09749 98.861941 163.08589 98.964502 163.07325 C 99.067063 163.06061 99.159119 163.04666 99.239937 163.03191 C 99.320755 163.01715 99.390303 163.0016 99.44871 162.98488 C 99.507117 162.96816 99.554459 162.95071 99.589787 162.93217 C 99.607451 162.9229 99.621943 162.91293 99.633712 162.90323 C 99.645481 162.89354 99.654277 162.88389 99.660067 162.87378 C 99.665857 162.86367 99.668607 162.85327 99.668335 162.84277 C 99.668063 162.83227 99.664934 162.82161 99.658516 162.81073 C 99.652099 162.79986 99.642741 162.78889 99.630094 162.77766 C 99.617447 162.76644 99.601512 162.75512 99.582552 162.74355 C 99.577105 162.74023 99.54896 162.72505 99.542761 162.72133 C 97.619083 162.24065 96.31009 161.65318 94.127588 160.55041 C 87.879428 157.39332 83.162488 153.7681 75.985543 146.60604 C 75.794112 146.41501 75.61116 146.224 75.421753 146.03295 C 73.834544 144.43197 72.31915 142.83139 70.880945 141.23737 C 67.781981 137.8027 65.035414 134.40045 62.719169 131.10466 C 60.671399 128.19087 57.595645 125.31749 55.449845 124.31334 C 54.269936 123.76119 53.099354 123.49816 51.947734 123.51494 z " /><path
         id="path5594"
         style="fill:url(#linearGradient9752);stroke:none;stroke-width:0.799999;fill-opacity:1"
         d="M 38.385254 140.16199 C 37.919565 141.45646 37.402201 142.86901 37.029781 143.8367 C 35.115369 148.81109 33.5194 155.41169 32.744771 161.56016 C 32.312485 164.99132 32.31363 165.02135 32.89515 166.71954 C 34.297752 170.81558 36.674003 174.73374 39.604301 177.78295 C 44.528041 182.90649 50.826621 185.87997 60.260921 187.53377 C 64.382015 188.25618 76.533351 188.17786 82.147441 187.3927 C 89.885459 186.3105 97.812694 184.49485 105.51862 182.04057 C 110.17218 180.55845 111.66211 180.16394 115.42655 179.41437 C 122.1133 178.08291 130.08771 177.71537 135.52661 178.48833 C 149.16809 180.42705 159.14104 187.80146 165.18423 200.41929 C 167.56 205.37973 168.85066 209.75282 169.38553 214.65305 C 169.83405 218.76212 169.75184 220.44327 169.00467 222.42828 C 168.75282 223.0974 168.5396 223.69481 168.42796 224.03594 C 168.50475 223.89429 168.57695 223.76628 168.66257 223.59824 C 168.80567 223.3174 168.95999 223.00001 169.12198 222.64739 C 169.28397 222.29477 169.45374 221.90665 169.62737 221.48467 C 169.801 221.0627 169.97851 220.60674 170.15654 220.11783 C 170.33456 219.62892 170.51312 219.107 170.68829 218.55358 C 170.86346 218.00018 171.03534 217.41519 171.2004 216.79969 C 171.36547 216.18418 171.52398 215.53802 171.67169 214.86285 C 171.74555 214.52527 171.81644 214.18086 171.8846 213.82881 C 171.95276 213.47676 172.01787 213.11756 172.07942 212.75135 C 172.14097 212.38516 172.19901 212.01159 172.25305 211.63153 C 172.3071 211.25146 172.35729 210.86449 172.40291 210.47087 C 172.44854 210.07726 172.4896 209.6773 172.5259 209.27043 C 172.56221 208.86356 172.59388 208.45001 172.61995 208.0302 C 172.64603 207.61038 172.66651 207.18418 172.68145 206.75172 C 172.69639 206.31926 172.70542 205.88032 172.70832 205.43552 C 172.71122 204.99072 172.70803 204.53999 172.69799 204.08315 C 172.68794 203.62631 172.67124 203.1637 172.64734 202.69512 C 172.62345 202.22654 172.59247 201.75196 172.55381 201.27195 C 172.51515 200.79194 172.4686 200.30634 172.41428 199.81519 C 172.35996 199.32405 172.29759 198.82733 172.2267 198.32536 C 172.1558 197.82339 172.07684 197.31599 171.98847 196.80349 C 171.9001 196.291 171.80273 195.77333 171.69598 195.25061 C 171.58923 194.7279 171.47269 194.20039 171.34665 193.66777 C 171.2206 193.13513 171.08464 192.59771 170.9384 192.05546 C 170.79216 191.51321 170.63601 190.96578 170.46866 190.41422 C 170.30132 189.86265 170.12316 189.30668 169.93381 188.7461 C 169.74446 188.18552 169.54353 187.6204 169.33127 187.05111 C 169.26203 186.86543 169.1839 186.6765 169.11216 186.48991 C 166.16336 182.46395 161.02672 178.57122 154.57248 175.47353 C 144.39385 170.58829 131.58391 167.48786 107.37639 164.05097 C 103.50112 163.50077 101.27468 163.1541 99.542761 162.72133 C 99.54896 162.72505 99.577105 162.74023 99.582552 162.74355 C 99.601512 162.75512 99.617447 162.76644 99.630094 162.77766 C 99.642741 162.78889 99.652099 162.79986 99.658516 162.81073 C 99.664934 162.82161 99.668063 162.83227 99.668335 162.84277 C 99.668607 162.85327 99.665857 162.86367 99.660067 162.87378 C 99.654277 162.88389 99.645481 162.89354 99.633712 162.90323 C 99.621943 162.91293 99.607451 162.9229 99.589787 162.93217 C 99.554459 162.95071 99.507117 162.96816 99.44871 162.98488 C 99.390303 163.0016 99.320755 163.01715 99.239937 163.03191 C 99.159119 163.04666 99.067063 163.06061 98.964502 163.07325 C 98.861941 163.08589 98.748623 163.09749 98.624988 163.10787 C 98.501353 163.11826 98.367503 163.12728 98.223462 163.13526 C 97.93538 163.15123 97.607305 163.16234 97.24161 163.16782 C 96.875914 163.17329 96.472411 163.17348 96.034448 163.1673 C 95.596486 163.16112 95.123914 163.14858 94.619031 163.12958 C 94.114148 163.11057 93.577317 163.08506 93.01086 163.05206 C 92.444403 163.01906 91.848124 162.97878 91.225439 162.93062 C 90.602755 162.88246 89.953387 162.82613 89.279822 162.76164 C 88.606256 162.69716 87.90861 162.62451 87.18951 162.54253 C 86.82996 162.50154 86.464934 162.45841 86.095003 162.41283 C 85.725072 162.36724 85.350168 162.31897 84.970524 162.26865 C 84.59088 162.21833 84.206828 162.16572 83.81814 162.11052 C 83.429451 162.05531 83.036465 161.99764 82.6394 161.9374 C 82.242336 161.87717 81.841145 161.8142 81.436373 161.74878 C 81.031601 161.68337 80.622936 161.6154 80.211125 161.54466 C 79.799313 161.47393 79.384422 161.40072 78.966239 161.32452 C 78.548057 161.24832 78.126636 161.16914 77.702751 161.08733 C 77.278865 161.00551 76.852162 160.92066 76.423242 160.83308 C 75.994322 160.7455 75.563067 160.65526 75.129781 160.56178 C 74.696495 160.46829 74.261418 160.37192 73.824434 160.27239 C 73.38745 160.17285 72.948766 160.07013 72.508752 159.9644 C 72.068739 159.85866 71.627177 159.74988 71.184802 159.6378 C 70.742427 159.52572 70.299235 159.41014 69.855168 159.29157 C 69.4111 159.173 68.966491 159.05142 68.521399 158.92622 C 68.076307 158.80101 67.630495 158.67218 67.185046 158.54019 C 66.739598 158.40821 66.294347 158.27293 65.849211 158.13402 C 65.404074 157.9951 64.959081 157.85264 64.514925 157.70665 C 64.070769 157.56067 63.627281 157.41131 63.184774 157.2581 C 62.742267 157.10489 62.301014 156.9479 61.860824 156.78733 C 61.420633 156.62676 60.98183 156.46242 60.544625 156.29434 C 60.10742 156.12625 59.671796 155.95435 59.238245 155.77861 C 58.804694 155.60286 58.372979 155.42316 57.94375 155.23962 C 57.514521 155.05608 57.087447 154.86887 56.663208 154.67738 C 56.238969 154.48589 55.817783 154.29044 55.399202 154.09085 C 54.980622 153.89126 54.56502 153.68735 54.152767 153.47952 C 53.740514 153.27169 53.331226 153.0596 52.925968 152.84338 C 52.520711 152.62717 52.119502 152.40668 51.721908 152.18193 C 51.324313 151.95717 50.930363 151.72858 50.541101 151.49515 C 50.151839 151.26172 49.766911 151.02375 49.38665 150.78149 C 49.006388 150.53924 48.631213 150.29271 48.26062 150.04149 C 47.890027 149.79026 47.524303 149.53444 47.164046 149.27409 C 46.983918 149.14392 46.805063 149.01228 46.627645 148.8798 C 46.450226 148.74732 46.274137 148.61411 46.099512 148.47931 C 45.924886 148.34451 45.751912 148.20821 45.580164 148.07107 C 45.408415 147.93392 45.237872 147.79561 45.069084 147.6561 C 44.900295 147.5166 44.733051 147.37579 44.567306 147.23391 C 44.40156 147.09202 44.237447 146.94928 44.074829 146.80499 C 43.912211 146.66071 43.751061 146.51503 43.591654 146.36833 C 43.432247 146.22163 43.274411 146.07356 43.118298 145.92443 C 42.962186 145.77529 42.808012 145.62488 42.655278 145.47329 C 42.502543 145.3217 42.351349 145.16898 42.202075 145.01492 C 42.052802 144.86086 41.905453 144.70586 41.759725 144.54932 C 41.613997 144.39277 41.46981 144.23501 41.32771 144.07596 C 41.18561 143.91691 41.045452 143.75643 40.907064 143.59485 C 40.768676 143.43327 40.631862 143.27063 40.49727 143.10651 C 40.362677 142.94239 40.230074 142.77659 40.099361 142.6099 C 39.968648 142.44321 39.840089 142.27532 39.713338 142.10605 C 39.586588 141.93679 39.461905 141.76632 39.339201 141.59446 C 39.216496 141.42259 39.095524 141.24959 38.976949 141.07511 C 38.858374 140.90063 38.741978 140.72461 38.627616 140.54749 C 38.545256 140.41994 38.465392 140.29092 38.385254 140.16199 z " /><path
         id="path4369"
         style="stroke:none;fill:url(#linearGradient7342);stroke-width:0.799999;fill-opacity:1"
         d="M 106.68444 93.162789 C 104.70524 93.176089 103.91294 93.30157 102.64955 93.613407 C 102.43275 93.666918 102.24266 93.709959 101.98757 93.775671 C 89.460041 97.002882 82.235179 105.59572 81.155253 118.55349 C 80.816373 122.61957 81.931319 126.08014 84.514738 128.97869 C 87.113729 131.8947 91.408316 134.58453 96.754818 136.81904 C 97.310858 137.03042 97.868987 137.24093 98.432751 137.44226 C 99.161472 137.70249 99.891211 137.95452 100.6073 138.19725 C 101.32337 138.43997 102.02609 138.67357 102.70071 138.89798 C 102.02609 138.67357 101.32337 138.43997 100.6073 138.19725 C 99.891215 137.95452 99.161472 137.70249 98.432751 137.44226 C 97.868986 137.24093 97.310859 137.03042 96.754818 136.81904 C 99.235669 137.85588 101.93812 138.79542 104.81634 139.60957 C 109.1472 140.83462 113.85234 141.78426 118.73384 142.36857 C 120.72707 142.60715 122.64519 142.86562 124.42445 143.1277 C 125.28231 143.23385 126.13101 143.33958 126.95194 143.45171 C 127.43709 143.51798 127.91601 143.58628 128.38906 143.65738 C 128.86211 143.72848 129.32951 143.80214 129.79104 143.88011 C 130.25258 143.95808 130.7083 144.04024 131.15892 144.12712 C 131.60954 144.214 132.05498 144.30577 132.49527 144.40359 C 133.5562 144.6393 134.59038 144.87338 135.60103 145.10742 C 136.61166 145.34146 137.59878 145.57539 138.5657 145.81125 C 139.53262 146.04714 140.4792 146.28468 141.40894 146.52594 C 142.33868 146.7672 143.25179 147.01218 144.15089 147.26233 C 145.04999 147.51248 145.93515 147.76819 146.81016 148.03076 C 147.68517 148.29332 148.54995 148.56305 149.40742 148.84156 C 150.26489 149.12007 151.11531 149.4071 151.96178 149.70507 C 152.80826 150.00304 153.65087 150.31171 154.4929 150.63267 C 154.98117 150.81878 155.45709 151.00424 155.92175 151.18922 C 156.3864 151.3742 156.8395 151.55883 157.28291 151.74371 C 157.72631 151.92859 158.1601 152.1134 158.58464 152.29923 C 159.00915 152.48506 159.42459 152.67159 159.83262 152.8594 C 160.24065 153.04721 160.64124 153.23649 161.03513 153.42733 C 161.42903 153.61816 161.81623 153.81069 162.19837 154.00559 C 162.5805 154.20049 162.95734 154.39779 163.33008 154.5978 C 163.70283 154.7978 164.07126 155.0004 164.43699 155.20655 C 164.80272 155.4127 165.16577 155.62211 165.52685 155.83545 C 165.88793 156.04879 166.24704 156.26604 166.60585 156.48761 C 166.96466 156.70917 167.32336 156.93529 167.68227 157.16612 C 168.04118 157.39695 168.40042 157.63243 168.76179 157.87357 C 169.12317 158.1147 169.48646 158.36161 169.85268 158.61409 C 170.2189 158.86657 170.58823 159.12489 170.96166 159.38975 C 171.70852 159.91949 172.47234 160.47492 173.26229 161.06045 C 173.59543 161.30739 173.91965 161.55508 174.23588 161.80356 C 174.55211 162.05204 174.86002 162.30158 175.15985 162.55132 C 175.45969 162.80106 175.7513 163.05094 176.03525 163.30166 C 176.3192 163.55238 176.59556 163.80369 176.86414 164.0551 C 177.13272 164.30651 177.39383 164.55828 177.64755 164.8101 C 177.90128 165.06189 178.14766 165.31366 178.38704 165.5656 C 178.62643 165.81755 178.8586 166.06985 179.08416 166.32163 C 179.30972 166.57341 179.52872 166.82477 179.74097 167.07611 C 179.95321 167.32744 180.15906 167.57842 180.3585 167.82903 C 180.55794 168.07964 180.75115 168.32978 180.93831 168.57937 C 181.12546 168.82897 181.30656 169.07832 181.48195 169.32662 C 181.65733 169.57491 181.82684 169.82249 181.99096 170.06921 C 182.15508 170.31592 182.31352 170.56178 182.4669 170.80663 C 182.62027 171.05148 182.76869 171.29515 182.91183 171.53785 C 183.05497 171.78055 183.19285 172.02209 183.32628 172.26235 C 183.4597 172.50262 183.5886 172.74156 183.71282 172.97911 C 183.83703 173.21665 183.95644 173.45253 184.07197 173.68707 C 184.18749 173.92161 184.29897 174.15502 184.40632 174.38625 C 184.62099 174.84876 184.81966 175.30442 185.00473 175.75206 C 185.18979 176.1997 185.36143 176.6393 185.52098 177.06981 C 185.68052 177.50032 185.8283 177.92169 185.96643 178.33278 C 186.10456 178.74388 186.23317 179.14433 186.354 179.53374 C 186.47483 179.92316 186.58795 180.30155 186.69558 180.66701 C 186.91084 181.39792 187.10376 182.07853 187.29089 182.69996 C 187.41682 182.11629 187.53251 181.52127 187.63764 180.91609 C 187.64191 180.89153 187.64478 180.86575 187.64901 180.84116 C 188.00872 177.72647 188.18696 174.53945 188.18696 171.24433 C 188.18696 167.05793 187.96477 163.49742 187.46814 159.95975 C 187.08882 157.25761 186.55363 154.56827 185.80985 151.6264 C 182.51049 138.57655 175.73478 126.60158 166.37434 116.90087 C 166.34389 116.86886 166.31442 116.8362 166.28391 116.80424 C 166.15852 116.67292 166.03011 116.54366 165.90357 116.41305 C 165.04174 115.53506 164.15865 114.67682 163.25463 113.83801 C 159.70097 110.54066 155.829 107.55015 151.67446 104.92796 C 148.3381 102.82215 141.38823 99.368077 137.91613 98.08962 C 128.57967 94.651859 121.97764 93.428431 111.68466 93.229451 C 109.9509 93.195934 108.64061 93.171362 107.60997 93.163822 C 107.27393 93.161364 106.96719 93.160889 106.68444 93.162789 z " /><path
         style="fill:#009933;stroke:none;stroke-width:0.4;fill-opacity:1;stroke-opacity:1;stroke-dasharray:none"
         d="m 68.745492,67.731507 c -4.147939,0.05257 -8.306268,0.601928 -12.056629,1.64331 -6.347064,1.762418 -13.888068,5.627832 -19.976042,10.239169 -4.206845,3.186465 -12.738697,11.197226 -12.440067,11.680424 0.10387,0.168073 3.284689,0.462172 9.661942,0.892968 0.65485,0.04423 4.056539,0.101188 7.559746,0.126608 19.076521,0.138443 37.364422,-2.620066 52.897546,-7.978841 l 2.645833,-0.912606 -1.475362,-0.666626 C 89.620915,80.070469 81.114427,78.105567 72.962805,77.53556 62.613686,76.81189 51.542993,78.919738 42.869552,83.265442 c -1.270399,0.636516 -2.397174,1.157036 -2.503724,1.157036 -0.355379,0 1.611304,-1.571495 3.990971,-3.18947 12.744888,-8.665442 31.917752,-9.76119 52.588522,-3.005501 2.039798,0.666651 3.756139,1.164502 3.814239,1.106392 0.0581,-0.05811 -0.69603,-0.712482 -1.675869,-1.454174 C 93.852507,73.919937 87.175938,70.713403 80.739075,69.069926 77.030593,68.123067 72.89343,67.678942 68.745492,67.731507 Z"
         id="path4367" /><path
         style="fill:#009933;stroke:none;stroke-width:0.4;fill-opacity:1;stroke-opacity:1;stroke-dasharray:none"
         d="m 165.75611,53.843982 c -4.72214,-0.01017 -10.13853,0.174103 -12.22975,0.498678 -13.66646,2.121147 -24.36118,7.45664 -33.08428,16.505452 -2.63931,2.737859 -6.80088,8.173917 -6.49315,8.481653 0.0569,0.05694 1.55589,-0.916271 3.33106,-2.162658 15.46623,-10.859144 32.12643,-17.838336 43.6547,-18.287256 l 3.3073,-0.128675 -3.43235,0.944129 c -11.17679,3.07513 -21.33125,7.575989 -30.56661,13.54801 -3.44125,2.225273 -8.90257,6.411508 -11.1125,8.517826 l -1.98438,1.891358 5.42396,-0.117822 c 4.21891,-0.09156 6.27631,-0.266717 9.26042,-0.7891 13.43903,-2.352576 24.75978,-8.238944 34.4072,-17.889347 3.27594,-3.276945 7.06751,-7.886296 8.05067,-9.787516 l 0.39533,-0.764295 -2.04587,-0.220658 c -1.46492,-0.15794 -4.04847,-0.23368 -6.88175,-0.239779 z"
         id="path4365" /><path
         style="fill:#6c3e10;stroke:none;stroke-width:0.4;fill-opacity:1;stroke-opacity:1;stroke-dasharray:none"
         d="m 95.450321,37.598979 c -1.921758,-0.01574 -4.342173,1.726804 -6.199621,4.464327 -1.323119,1.950024 -3.688373,6.640422 -3.348633,6.640422 0.05291,0 0.565026,-0.744141 1.137915,-1.653646 2.338858,-3.713064 5.815894,-7.342188 7.034713,-7.342188 0.578139,0 0.762502,1.495444 0.453202,3.676262 -0.573539,4.044024 -1.969789,6.718884 -5.044136,9.661942 l -1.997811,1.912545 1.733227,0.492993 c 6.948003,1.976449 12.257993,7.81276 15.448673,16.979326 0.96743,2.779342 2.00852,7.145911 2.05362,8.613944 0.0265,0.862774 0.0269,0.861899 0.28577,-0.194303 0.15496,-0.632079 0.20754,-4.095397 0.13074,-8.598959 -0.16834,-9.870219 -1.03454,-15.749688 -3.35328,-22.754166 -1.10303,-3.332072 -3.65865,-8.624051 -4.783174,-9.904822 -0.916879,-1.044265 -2.594385,-1.985877 -3.551205,-1.993677 z"
         id="rect4314" /></g></g></svg>
